<svg width="18" height="20" viewBox="0 0 18 20" fill="none" xmlns="http://www.w3.org/2000/svg">
<path d="M12.3872 4.0077e-06L12.4528 0.000654515C12.8045 0.00712076 13.1498 0.0959702 13.461 0.260069L13.6619 0.366039C15.2626 1.2106 16.7086 1.97838 18 2.66937C16.7773 2.02182 15.7475 2.36218 14.7142 2.93517C13.6809 3.50816 12.5146 5.00256 12.23 5.82931C11.5471 4.87028 10.7879 4.81867 9.47968 5.41658C8.60752 5.81519 7.72464 6.78188 6.83103 8.31666V7.03354L4.47903 8.20416V19.1455L0 16.9655V5.91581L2.45039 4.75562C2.56459 4.82832 2.74779 4.94518 3 5.10621C3.6589 3.61323 6.13113 2.00427 7.88961 3.28979C9.22528 1.06566 10.7463 -0.030717 12.4528 0.000654515L12.3872 4.0077e-06ZM6.82655 11.9523C6.82655 9.48059 8.84936 8.11685 9.60158 8.27562C10.3538 8.43439 10.4499 9.48059 10.4499 10.5491V16.2314L6.82655 14.4301V11.9523ZM12.8625 9.0725C12.8625 6.60074 14.8853 5.237 15.6375 5.39577C16.3897 5.55455 16.4859 6.60074 16.4859 7.6692V13.3516L12.8625 11.5502V9.0725Z" fill="white"/>
</svg>

