<svg width="67" height="14" viewBox="0 0 67 14" fill="none" xmlns="http://www.w3.org/2000/svg">
<path d="M8.246 0.42L5.04 5.054L1.834 0.42H0V10.22H1.918V3.766L5.04 8.092L8.162 3.766V10.22H10.08V0.42H8.246Z" fill="white"/>
<path d="M15.2545 10.416C17.4385 10.416 19.0345 8.792 19.0345 6.678C19.0345 4.55 17.4385 2.94 15.2545 2.94C13.0705 2.94 11.4605 4.55 11.4605 6.678C11.4605 8.792 13.0705 10.416 15.2545 10.416ZM15.2545 8.736C14.0645 8.736 13.2665 7.854 13.2665 6.678C13.2665 5.502 14.0645 4.62 15.2545 4.62C16.4305 4.62 17.2425 5.502 17.2425 6.678C17.2425 7.854 16.4305 8.736 15.2545 8.736Z" fill="white"/>
<path d="M22.2875 4.186V3.136H20.4395V10.22H22.2875V7.14C22.2875 5.236 23.1135 4.536 24.6255 4.774V3.038C23.5195 2.884 22.7075 3.36 22.2875 4.186Z" fill="white"/>
<path d="M29.9702 2.94C28.9622 2.94 28.1922 3.346 27.6742 3.99V3.136H25.8262V13.16H27.6742V9.352C28.1922 9.996 28.9622 10.416 29.9702 10.416C31.9302 10.416 33.4562 8.82 33.4562 6.678C33.4562 4.522 31.9302 2.94 29.9702 2.94ZM29.6482 8.764C28.5282 8.764 27.6322 7.896 27.6322 6.664C27.6322 5.446 28.5282 4.592 29.6482 4.592C30.8102 4.592 31.6362 5.446 31.6362 6.664C31.6362 7.896 30.8102 8.764 29.6482 8.764Z" fill="white"/>
<path d="M38.9796 2.94C37.9576 2.94 37.1876 3.402 36.6976 4.032V0H34.8496V10.22H36.6976V6.72C36.6976 5.474 37.3696 4.662 38.4056 4.662C39.4276 4.662 39.9176 5.348 39.9176 6.426V10.22H41.7656V6.076C41.7656 4.186 40.8276 2.94 38.9796 2.94Z" fill="white"/>
<path d="M46.9336 10.416C48.7956 10.416 49.9436 9.324 50.3496 8.4L48.6836 7.91C48.4036 8.442 47.8576 8.848 46.9616 8.848C45.6736 8.848 45.0296 8.148 44.9036 7.238H50.4056C50.4476 7.014 50.4476 6.804 50.4476 6.58C50.4476 4.55 49.1176 2.94 46.7936 2.94C44.5676 2.94 43.0836 4.564 43.0836 6.678C43.0836 8.918 44.6656 10.416 46.9336 10.416ZM44.9036 6.076C45.0016 5.264 45.7016 4.508 46.7796 4.508C47.8856 4.508 48.5576 5.208 48.6416 6.076H44.9036Z" fill="white"/>
<path d="M56.8418 3.136V6.622C56.8418 7.882 56.1838 8.694 55.1338 8.694C54.1118 8.694 53.6217 7.994 53.6217 6.916V3.136H51.7738V7.266C51.7738 9.17 52.7118 10.416 54.5737 10.416C55.5957 10.416 56.3657 9.954 56.8418 9.324V10.22H58.6898V3.136H56.8418Z" fill="white"/>
<path d="M63.2977 10.416C65.1037 10.416 66.3637 9.436 66.3637 8.106C66.3637 6.832 65.4397 6.398 64.3757 6.09L62.6117 5.586C62.2197 5.474 62.0237 5.306 62.0237 5.026C62.0237 4.69 62.4577 4.382 63.0317 4.382C63.7737 4.382 64.2917 4.76 64.5437 5.208L66.1817 4.732C65.7337 3.668 64.5717 2.94 63.0457 2.94C61.4917 2.94 60.2037 3.878 60.2037 5.068C60.2037 6.076 60.9457 6.664 61.9537 6.958L63.7597 7.49C64.2777 7.644 64.5437 7.84 64.5437 8.19C64.5437 8.582 64.0817 8.918 63.3677 8.918C62.4297 8.918 61.7577 8.414 61.5197 7.742L59.8537 8.232C60.2037 9.38 61.5477 10.416 63.2977 10.416Z" fill="white"/>
</svg>
